HIERARCHY
ROOT Hips
{
	OFFSET 0.000000 0.000000 0.000000
	CHANNELS 6 Xposition Yposition Zposition Xrotation Yrotation Zrotation
	JOINT LeftUpLeg_virtual
	{
		OFFSET 0.000000 0.000000 0.000000
		CHANNELS 3 Xrotation Yrotation Zrotation
		JOINT LeftUpLeg
		{
			OFFSET 11.394100 -6.187798 -0.413800
			CHANNELS 3 Xrotation Yrotation Zrotation
			JOINT LeftLeg
			{
				OFFSET 0.430247 -32.302673 3.732800
				CHANNELS 3 Xrotation Yrotation Zrotation
				JOINT LeftFoot
				{
					OFFSET -0.430247 -48.264931 -6.423300
					CHANNELS 3 Xrotation Yrotation Zrotation
					JOINT LeftToeBase
					{
						OFFSET 4.230900 -16.068199 23.438400
						CHANNELS 3 Xrotation Yrotation Zrotation
						JOINT LeftToe_End
						{
							OFFSET 4.510700 0.695400 19.974600
							CHANNELS 3 Xrotation Yrotation Zrotation
							End Site
							{
								OFFSET 0 0 0
							}
						}
					}
				}
			}
		}
	}
	JOINT RightUpLeg_virtual
	{
		OFFSET 0.000000 0.000000 0.000000
		CHANNELS 3 Xrotation Yrotation Zrotation
		JOINT RightUpLeg
		{
			OFFSET -11.333700 -6.187798 -0.413800
			CHANNELS 3 Xrotation Yrotation Zrotation
			JOINT RightLeg
			{
				OFFSET -0.430392 -32.302628 3.733000
				CHANNELS 3 Xrotation Yrotation Zrotation
				JOINT RightFoot
				{
					OFFSET 0.430392 -48.264973 -6.423500
					CHANNELS 3 Xrotation Yrotation Zrotation
					JOINT RightToeBase
					{
						OFFSET -4.230900 -16.068199 23.438400
						CHANNELS 3 Xrotation Yrotation Zrotation
						JOINT RightToe_End
						{
							OFFSET -4.510700 0.695400 19.974600
							CHANNELS 3 Xrotation Yrotation Zrotation
							End Site
							{
								OFFSET 0 0 0
							}
						}
					}
				}
			}
		}
	}
	JOINT Spine_virtual
	{
		OFFSET 0.000000 0.000000 0.000000
		CHANNELS 3 Xrotation Yrotation Zrotation
		JOINT Spine
		{
			OFFSET -0.002400 12.777504 0.315300
			CHANNELS 3 Xrotation Yrotation Zrotation
			JOINT Spine1
			{
				OFFSET -0.002067 5.816869 0.032633
				CHANNELS 3 Xrotation Yrotation Zrotation
				JOINT Spine1_split
				{
					OFFSET -0.002067 5.816869 0.032633
					CHANNELS 3 Xrotation Yrotation Zrotation
					JOINT Spine2
					{
						OFFSET -0.002067 5.816869 0.032633
						CHANNELS 3 Xrotation Yrotation Zrotation
						JOINT Neck_virtual
						{
							OFFSET 0.000000 0.000000 0.000000
							CHANNELS 3 Xrotation Yrotation Zrotation
							JOINT Neck
							{
								OFFSET -0.003700 21.199493 -0.826900
								CHANNELS 3 Xrotation Yrotation Zrotation
								JOINT Head
								{
									OFFSET 0.000000 20.442200 4.834800
									CHANNELS 3 Xrotation Yrotation Zrotation
									JOINT HeadTop_End
									{
										OFFSET 0.000000 34.668396 4.968400
										CHANNELS 3 Xrotation Yrotation Zrotation
										End Site
										{
											OFFSET 0 0 0
										}
									}
								}
							}
						}
						JOINT LeftShoulder_virtual
						{
							OFFSET 0.000000 0.000000 0.000000
							CHANNELS 3 Xrotation Yrotation Zrotation
							JOINT LeftShoulder
							{
								OFFSET 3.288150 8.794197 -1.372250
								CHANNELS 3 Xrotation Yrotation Zrotation
								JOINT LeftShoulder_split
								{
									OFFSET 3.288150 8.794197 -1.372250
									CHANNELS 3 Xrotation Yrotation Zrotation
									JOINT LeftArm
									{
										OFFSET 11.953299 -2.279007 -0.146200
										CHANNELS 3 Xrotation Yrotation Zrotation
										JOINT LeftForeArm
										{
											OFFSET 18.448900 0.000000 0.000000
											CHANNELS 3 Xrotation Yrotation Zrotation
											JOINT LeftHand
											{
												OFFSET 29.527798 0.000000 0.000000
												CHANNELS 3 Xrotation Yrotation Zrotation
												End Site
												{
													OFFSET 0 0 0
												}
											}
										}
									}
								}
							}
						}
						JOINT RightShoulder_virtual
						{
							OFFSET 0.000000 0.000000 0.000000
							CHANNELS 3 Xrotation Yrotation Zrotation
							JOINT RightShoulder
							{
								OFFSET -3.249400 8.794197 -1.372250
								CHANNELS 3 Xrotation Yrotation Zrotation
								JOINT RightShoulder_split
								{
									OFFSET -3.249400 8.794197 -1.372250
									CHANNELS 3 Xrotation Yrotation Zrotation
									JOINT RightArm
									{
										OFFSET -11.953299 -2.279007 -0.146200
										CHANNELS 3 Xrotation Yrotation Zrotation
										JOINT RightForeArm
										{
											OFFSET -18.448900 0.000000 0.000000
											CHANNELS 3 Xrotation Yrotation Zrotation
											JOINT RightHand
											{
												OFFSET -29.527802 0.000000 0.000000
												CHANNELS 3 Xrotation Yrotation Zrotation
												End Site
												{
													OFFSET 0 0 0
												}
											}
										}
									}
								}
							}
						}
					}
				}
			}
		}
	}
}
MOTION
Frames: 6
Frame Time: 0.03333333
-3.308498 75.995613 -0.675732 0.000000 0.000000 0.000000 10.776642 4.615133 -21.861446 -81.853008 11.622929 23.396420 100.600757 -4.835653 5.999181 30.275063 -2.873536 21.417742 -1.597350 -4.241921 -2.982142 0.000000 0.000000 0.000000 6.912195 5.367397 -21.251401 -22.536920 -9.411887 -12.824145 54.815260 8.165789 0.791619 16.592807 16.443855 -7.385896 -49.171095 0.793902 1.507371 0.000000 0.000000 0.000000 3.714948 8.645389 -19.583440 5.487280 5.788106 3.062230 2.240862 2.033173 1.554709 0.968858 1.978740 0.776221 0.000000 0.000000 0.000000 1.640829 1.022678 2.700890 -6.913613 2.943936 -2.703844 -15.002201 7.442322 3.215735 0.000000 0.000000 0.000000 2.128145 1.570073 1.353444 -0.978210 -5.504926 -4.955530 -1.588973 0.867745 -2.155500 62.074842 -16.628691 -42.383612 9.445323 -76.237895 9.845554 0.000000 0.000000 0.000000 3.580713 2.219965 2.182502 2.954659 -5.853899 8.048896 8.301526 4.654741 -6.470241 -15.952491 20.930980 55.967181 6.613676 76.835749 -6.377876 0.000000 0.000000 0.000000 
-3.585581 78.572250 13.202400 0.000000 0.000000 0.000000 7.520376 1.423938 -21.734227 -86.527459 10.099754 22.917259 81.732707 -2.550985 2.363571 31.827961 -1.583369 19.279051 0.340785 -4.027681 -2.493086 0.000000 0.000000 0.000000 6.606360 0.613512 -21.474721 -13.941901 -11.001537 -12.732432 51.261594 8.409986 0.573588 21.347519 17.196087 -0.932219 -49.955946 1.191313 0.881698 0.000000 0.000000 0.000000 4.720830 5.897585 -20.202576 3.536892 7.154502 3.266375 2.134851 2.526865 1.238706 0.788251 4.205668 0.066785 0.000000 0.000000 0.000000 1.653288 1.569549 2.501586 -6.190323 2.331896 -2.452604 -15.886759 8.103851 4.006447 0.000000 0.000000 0.000000 1.890803 2.221337 1.479702 -0.829010 -3.441325 -4.019285 -1.306194 2.573861 -2.017864 64.860433 -14.275701 -41.311600 8.041152 -79.172254 7.719377 0.000000 0.000000 0.000000 2.544593 2.604197 1.848724 2.150185 -4.360646 6.905166 7.545862 5.462069 -6.995277 -23.716027 26.141552 60.083883 34.308897 88.378755 -35.032764 0.000000 0.000000 0.000000 
-3.225512 81.619835 29.868011 0.000000 0.000000 0.000000 5.509024 -0.757712 -20.713003 -86.165521 6.746022 17.120626 58.117171 1.447812 0.126410 31.643379 0.882356 16.798111 2.364782 -3.818542 -2.680763 0.000000 0.000000 0.000000 7.329872 -0.076359 -20.849644 -2.009551 -10.195036 -11.360567 45.994829 8.125493 -0.342731 24.410425 16.930845 5.293583 -47.127281 1.032410 2.035958 0.000000 0.000000 0.000000 5.673431 4.227925 -19.754213 1.921727 9.683670 3.115859 2.098546 3.614173 0.930529 0.763026 4.217050 -0.147149 0.000000 0.000000 0.000000 1.565481 2.648792 2.096962 -5.219111 1.370222 -1.473164 -16.139064 9.332140 4.313181 0.000000 0.000000 0.000000 1.544319 3.470772 1.446612 -0.857578 -0.753205 -3.218102 -1.095121 2.673163 -1.091364 67.068360 -12.208059 -42.478815 6.213853 -82.927062 5.178342 0.000000 0.000000 0.000000 1.872594 3.613986 1.344893 1.447426 -2.500655 5.841445 7.633712 3.946710 -6.449834 -29.569467 31.784224 63.898052 176.499984 79.612384 -178.091527 0.000000 0.000000 0.000000 
-2.033662 82.952972 47.064850 0.000000 0.000000 0.000000 4.381789 -0.578811 -19.127060 -81.861976 2.833913 8.309613 39.635926 5.786772 0.032373 29.104703 4.374003 15.366565 4.207181 -3.637090 -3.394161 0.000000 0.000000 0.000000 8.906096 3.040679 -19.624382 7.756780 -7.799635 -10.023513 43.105054 6.532067 -1.700475 24.242370 13.064892 7.632712 -39.877424 0.881186 4.045845 0.000000 0.000000 0.000000 5.177620 4.910132 -18.610023 1.507691 12.415204 2.374528 2.244085 4.745161 0.776091 1.124159 2.555279 0.330425 0.000000 0.000000 0.000000 1.328112 3.701448 1.689489 -4.246805 0.691881 -0.069549 -15.659296 11.082866 4.120248 0.000000 0.000000 0.000000 1.298557 4.690031 1.319900 -0.950720 1.585217 -2.924830 -0.086657 1.900597 -0.318497 66.475246 -11.463430 -45.306117 2.692921 -85.760163 1.405688 0.000000 0.000000 0.000000 1.693147 4.646042 0.809552 0.824950 -0.876114 5.379576 8.578146 1.715229 -4.672701 -29.005232 35.491282 65.122705 177.848168 71.551020 -179.973982 0.000000 0.000000 0.000000 
-0.027641 82.003510 64.130295 0.000000 0.000000 0.000000 3.462311 2.598737 -16.965251 -75.977515 -0.321518 -0.462955 31.396433 8.649165 0.725126 23.335008 7.418042 15.075011 4.836488 -3.107235 -3.992938 0.000000 0.000000 0.000000 10.388824 8.377355 -18.314592 10.597316 -4.990793 -9.472539 48.091270 3.564233 -2.914893 22.073880 5.484156 5.439878 -29.285795 1.263828 5.876696 0.000000 0.000000 0.000000 3.670010 8.703924 -16.829648 2.440643 14.078381 1.066091 2.623784 5.393685 0.718090 0.469562 1.401847 0.734609 0.000000 0.000000 0.000000 1.007643 4.137354 1.387704 -3.438714 0.525860 1.149693 -14.529882 13.067308 3.585411 0.000000 0.000000 0.000000 1.230489 5.211311 1.078728 -1.020873 2.829639 -3.287820 1.634558 1.210580 -0.112683 61.673903 -12.284793 -48.523163 2.362087 -85.713984 1.395910 0.000000 0.000000 0.000000 1.917080 5.078325 0.398142 0.339607 0.152665 5.758630 9.627558 0.849596 -2.388022 -20.158352 35.662651 62.961742 177.414259 68.829572 -179.563023 0.000000 0.000000 0.000000 
2.827288 79.108406 80.984375 0.000000 0.000000 0.000000 2.067333 7.139509 -14.625957 -67.385185 -1.112312 -6.997227 33.939138 10.000130 0.664248 13.290543 9.038341 16.756124 1.728453 -2.110948 -4.167388 0.000000 0.000000 0.000000 10.203322 15.504302 -17.477220 3.674832 -1.946809 -9.685717 63.287256 0.160221 -3.390864 19.761373 -3.302141 0.855842 -17.797581 2.059105 6.477502 0.000000 0.000000 0.000000 0.843230 14.497288 -14.108983 4.145193 13.676296 -0.692860 3.140929 5.059187 0.657281 -0.028855 0.645303 0.075759 0.000000 0.000000 0.000000 0.643697 3.627458 1.170369 -2.789759 1.033864 1.749781 -12.739256 15.625721 3.079902 0.000000 0.000000 0.000000 1.434533 4.657008 0.756761 -0.993063 2.843931 -4.073470 2.841931 -0.035880 -1.212480 51.796388 -14.117534 -51.310635 3.967289 -82.260339 4.029012 0.000000 0.000000 0.000000 2.348591 4.521572 0.198575 0.049933 0.072148 6.763101 9.310767 1.040976 -0.127250 -4.939592 31.285142 59.454877 176.175236 71.003020 -177.791176 0.000000 0.000000 0.000000 
